<svg viewBox="0 0 66 32" fill="none" xmlns="http://www.w3.org/2000/svg">
<path fill-rule="evenodd" clip-rule="evenodd" d="M39.6805 3.75333C37.5125 5.31684 36.3905 7.53424 36.3905 10.2333C36.3905 13.1021 37.4443 14.907 39.2833 16.1177C41.1795 17.3659 43.9641 18.0181 47.4872 18.3832C50.5457 18.6859 52.7385 18.9145 54.1525 19.3382C54.8652 19.5517 55.4626 19.8369 55.8775 20.2736C56.3147 20.7335 56.4914 21.2986 56.4797 21.9358C56.4788 22.427 56.3658 22.893 56.1128 23.3086C55.8595 23.7248 55.4872 24.0557 55.0213 24.3093C54.1087 24.8058 52.7908 25.0311 51.089 25.0311C49.2128 25.0311 47.5895 24.7624 46.3566 24.0837C45.2334 23.4653 44.467 22.5235 44.1282 21.2389L35.5727 21.2031C36.0413 24.2956 37.1791 26.5845 39.3045 28.1482C41.6128 29.8467 45.1902 30.7692 50.6362 30.7692C55.4435 30.7692 58.8652 29.7833 61.0702 28.1449C63.2485 26.5264 64.3051 24.2234 64.3056 21.4018C64.2955 19.9123 64.0054 18.7186 63.4895 17.7501C62.9746 16.7833 62.2172 16.0078 61.2219 15.3792C59.2064 14.1064 56.2444 13.4528 52.4706 13.0873C49.5248 12.8038 47.5252 12.5449 46.262 12.1208C45.6236 11.9065 45.1012 11.6278 44.7405 11.221C44.362 10.7941 44.2164 10.2893 44.2164 9.74427C44.2164 8.8682 44.5966 8.06449 45.4857 7.51438C46.3284 6.99296 47.5859 6.7244 49.3189 6.7244C51.1228 6.7244 52.6335 6.94954 53.7652 7.55016C54.7915 8.09486 55.4696 8.92927 55.7821 10.0662H63.8538C63.2387 7.0953 61.8564 4.97095 59.7035 3.5486C57.3561 1.99771 54.0167 1.23077 49.5659 1.23077C45.1766 1.23077 41.8713 2.1734 39.6805 3.75333ZM38.9606 2.75508C41.432 0.972801 45.0221 0 49.5659 0C54.1306 0 57.7483 0.781711 60.382 2.5217C63.0419 4.27905 64.6216 6.96258 65.1993 10.5847L65.313 11.297H54.7676L54.6812 10.7838C54.5056 9.74087 54.0097 9.0733 53.1882 8.63731C52.3234 8.17832 51.0553 7.95517 49.3189 7.95517C47.6762 7.95517 46.6902 8.21641 46.1332 8.56101C45.6227 8.87693 45.4471 9.27545 45.4471 9.74427C45.4471 10.0551 45.5228 10.2481 45.6614 10.4045C45.8179 10.581 46.1085 10.771 46.6537 10.9541C47.7575 11.3246 49.6068 11.5752 52.5888 11.8622C56.3896 12.2303 59.6029 12.9012 61.879 14.3386C63.0295 15.0651 63.9471 15.991 64.5758 17.1715C65.2034 18.3497 65.5255 19.7483 65.5363 21.3959L65.5364 21.3999C65.5364 24.5682 64.3288 27.257 61.8043 29.1328C59.3061 30.989 55.5853 32 50.6362 32C45.0908 32 41.1964 31.0683 38.5751 29.1396C35.9257 27.1903 34.6816 24.3028 34.2582 20.6558L34.1782 19.9665L45.148 20.0124L45.233 20.5249C45.4288 21.7057 46.0154 22.4909 46.9501 23.0055C47.9197 23.5392 49.3015 23.8003 51.089 23.8003C52.7218 23.8003 53.7915 23.5772 54.433 23.2282C54.7441 23.0589 54.9404 22.8677 55.0614 22.6687C55.1818 22.471 55.249 22.231 55.249 21.9297V21.9173C55.2566 21.5382 55.1605 21.3057 54.9854 21.1215C54.7867 20.9124 54.4295 20.706 53.7992 20.5171C52.5273 20.136 50.4804 19.9163 47.3646 19.6078L47.3618 19.6075C43.8049 19.239 40.7651 18.5667 38.6066 17.1457C36.3907 15.687 35.1597 13.4776 35.1597 10.2333C35.1597 7.14533 36.4665 4.55376 38.9606 2.75508ZM12.6127 0.774327H23.3151L35.9278 31.2257H25.3622L23.4273 26.1722H12.5037L10.61 31.2257H0L12.6127 0.774327ZM13.4351 2.0051L1.84194 29.9949H9.75685L11.6505 24.9414H24.274L26.2088 29.9949H34.0858L22.4927 2.0051H13.4351ZM17.8711 8.29229L22.2364 19.6108H13.6616L17.8711 8.29229ZM17.892 11.7668L15.4325 18.38H20.4426L17.892 11.7668Z" fill="#232528"/>
</svg>
