<svg width="91" height="36" viewBox="0 0 91 36" fill="currentColor" xmlns="http://www.w3.org/2000/svg">
<path d="M60.2361 15.2039H63.3302V12.1098H60.2361V15.2039ZM60.2361 29.7648H63.3302V16.4171H60.2361V29.7648ZM84.5642 26.9721C82.2641 26.9721 81.7982 26.1224 81.7982 23.0013C81.7982 19.8793 82.2641 18.9204 84.5642 18.9204C87.2199 18.9204 87.9322 19.6606 87.9322 23.0013C87.9322 26.3418 87.2199 26.9721 84.5642 26.9721ZM88.2051 16.4171V17.4697C87.1664 16.5391 85.4682 16.1825 84.0435 16.1825C79.4432 16.1825 78.7045 18.9485 78.7045 23.0013C78.7045 26.2055 79.0058 29.7648 84.0713 29.7648C85.3585 29.7648 86.9463 29.4637 87.9051 28.5868C87.9051 29.2718 87.9322 30.2356 87.851 30.9201C87.6857 32.1794 86.3992 32.7271 84.6191 32.7271C82.8938 32.7271 82.3481 32.2404 82.3481 31.282H78.9788C78.9788 34.6783 82.0176 35.3566 84.7003 35.3566C87.1664 35.3566 90.3969 34.6995 90.8898 31.5228C90.9995 30.7829 90.9995 29.5733 90.9995 28.3411V16.4171H88.2051ZM71.8825 16.1825C69.9927 16.1825 68.7886 16.785 68.0213 17.4697V16.4171H65.3376V29.7648H68.4315V23.5486C68.4315 21.2216 68.1856 18.9204 71.5263 18.9204C74.2104 18.9204 73.9633 20.1534 73.9633 22.7271V29.7648H77.0584V22.4808C77.0584 19.5786 77.2771 16.1825 71.8825 16.1825ZM54.4258 16.1825C52.8642 16.1825 51.6324 16.6756 50.7559 17.6073V16.4171H48.0727V29.7648H51.1669V23.9597C51.1669 22.9193 51.1125 21.4405 51.4689 20.4821C51.7966 19.5786 52.5913 18.8937 53.878 18.8937C55.1657 18.8937 55.6759 19.1677 55.6759 20.4001H58.7521C58.7521 17.4697 57.3014 16.1825 54.4258 16.1825ZM40.5825 27.1911C37.9259 27.1911 37.159 26.4518 37.159 23.1109C37.159 19.7691 37.9259 19.0305 40.5825 19.0305C42.8826 19.0305 43.3752 19.9889 43.3752 23.1109C43.3752 26.2326 42.8826 27.1911 40.5825 27.1911ZM41.2666 16.1825C39.8156 16.1825 38.2268 16.3473 37.2138 17.3882V12.1006H34.1196V29.7648H36.9119V28.697C37.7336 29.4357 38.9943 29.9834 40.7738 29.9834C46.1132 29.9834 46.4687 26.3694 46.4687 23.1109C46.4687 19.0578 45.8396 16.1825 41.2666 16.1825Z"/>
<path d="M16.3442 16.417C16.035 20.3215 12.7709 23.394 8.78685 23.394C4.80296 23.394 1.53867 20.3215 1.22939 16.417H0.00488281C0.323585 24.5125 6.9838 30.9784 15.1574 30.9784C23.3307 30.9784 29.9913 24.5125 30.3102 16.417H16.3442Z"/>
<path d="M1.22939 15.2037C1.53867 11.2993 4.80296 8.2266 8.78685 8.2266C12.7709 8.2266 16.035 11.2993 16.3442 15.2037H30.3102C29.9911 7.10821 23.3307 0.642578 15.1574 0.642578C6.9838 0.642578 0.323799 7.10821 0.00488281 15.2037H1.22939Z"/>
</svg>
