<svg viewBox="0 0 778 97" fill="currentColor" xmlns="http://www.w3.org/2000/svg">
<path d="M507.414 15.7005C502.868 15.7005 499.294 12.0536 499.294 7.75466C499.294 3.45572 502.868 0 507.414 0C511.958 0 515.536 3.45572 515.536 7.75466C515.536 12.0536 511.958 15.7005 507.414 15.7005Z" />
<path d="M495.038 74.0102V71.4848C496.684 71.4848 498.329 71.4848 499.775 70.0829C501.131 68.6832 501.325 66.3447 501.325 50.1791V41.7702C501.325 25.2308 501.131 23.9245 499.68 22.6119C498.185 21.2522 496.205 21.2856 495.207 21.3025C495.109 21.3041 495.021 21.3056 494.943 21.3056V18.6889H514.963V50.1791C514.963 66.7207 515.449 68.6832 516.798 70.0829C518.251 71.4848 519.7 71.4848 521.344 71.4848V74.0102H495.038Z" />
<path fill-rule="evenodd" clip-rule="evenodd" d="M31.1405 73.9078H0V71.3846C1.83994 71.3846 3.86893 71.3846 5.51322 69.9827C7.15751 68.5809 7.34876 66.2445 7.34876 50.0789V25.6892C7.34876 9.15183 7.15751 7.18927 5.51322 5.78532C3.96632 4.46852 2.24626 4.47324 0.358539 4.47842C0.23969 4.47874 0.120177 4.47907 0 4.47907V1.86232H32.3033C55.7081 1.86232 64.5034 20.1753 64.5034 36.4365C64.5034 56.7121 54.8354 73.9078 31.1405 73.9078ZM29.3053 4.94803H21.3718L21.2773 70.9211C21.2773 70.9211 29.0152 71.0124 29.8835 71.0124C41.3957 71.0124 49.9997 59.2392 49.9997 38.5877C49.9997 18.9642 42.2641 4.94803 29.3053 4.94803Z" />
<path fill-rule="evenodd" clip-rule="evenodd" d="M114.023 71.8593C112.282 73.635 109.574 75.1282 105.03 75.1282C101.454 75.1282 95.6482 73.0721 94.7799 67.091C91.1989 74.2892 83.6567 75.1282 80.078 75.1282C72.2456 75.1282 63.6395 71.1096 63.6395 60.5513C63.6395 47.3263 77.7262 44.5504 93.2152 41.4983L93.2174 41.4978C93.7055 41.4016 94.1949 41.3052 94.6854 41.2081C94.6854 36.0983 94.5588 32.4382 94.5093 31.0059L94.5091 31.0011C94.4971 30.6555 94.4897 30.4405 94.4897 30.3673C94.4897 23.8276 92.6542 21.2108 87.8158 21.2108C81.531 21.2108 79.2097 25.3229 80.4649 32.5189C80.854 34.5728 78.8228 35.227 74.4702 35.227C69.9265 35.227 67.6051 33.4514 67.6051 29.9956C67.6051 23.8276 78.2446 17.8486 90.8142 17.8486C104.259 17.8486 108.321 21.9585 108.321 36.5354V60.3643C108.321 67.091 108.901 69.2426 111.414 69.2426C113.058 69.2426 114.026 68.308 114.026 68.308V71.8593H114.023ZM91.3377 44.9584C83.4492 47.1205 76.8842 48.9198 76.8842 60.7368C76.8842 65.9703 78.9154 69.8954 85.0112 69.8954C87.1347 69.8954 94.3911 68.0242 94.6791 57.0921C94.778 52.6083 94.778 46.2534 94.6813 44.0104C93.5507 44.3518 92.4314 44.6586 91.3377 44.9584Z" />
<path fill-rule="evenodd" clip-rule="evenodd" d="M110.179 81.8569C110.179 91.4807 120.335 96.9032 139.48 96.9032C157.664 96.9032 167.527 90.3571 167.527 79.0533C167.527 65.5044 157.565 63.0746 141.706 61.5793C139.604 61.3896 137.731 61.2318 136.067 61.0916L136.061 61.0911L136.059 61.091L136.058 61.0909C127.09 60.3356 124.2 60.0921 124.2 58.1236C124.2 55.3199 128.651 54.7592 137.066 54.7592H139.192C154.278 54.7592 162.594 46.8155 162.594 36.1637C162.594 30.3695 160.471 26.2574 157.274 23.4538H167.433V18.97C166.122 18.97 164.881 18.9712 163.705 18.9724C154.644 18.9812 149.439 18.9862 145.672 18.4072C145.527 18.4072 145.405 18.3843 145.283 18.3614C145.161 18.3386 145.04 18.3158 144.896 18.3158C144.667 18.3158 144.499 18.2574 144.293 18.1857C144.239 18.1668 144.182 18.1468 144.12 18.1268C142.383 17.9399 140.638 17.8486 138.998 17.8486C123.331 17.8486 114.041 24.949 114.041 36.1637C114.041 45.0398 119.361 50.834 127.972 52.2359C121.201 52.2359 113.947 55.1309 113.947 62.2335C113.947 69.6164 121.977 72.607 140.739 74.5696C152.533 75.7823 156.696 78.0274 156.696 82.9784C156.696 90.5483 149.246 94.0083 139.288 94.0083C126.811 94.0083 122.749 89.7051 122.749 82.7915C122.749 79.8944 124.105 77.4645 126.91 75.2216C125.747 73.7263 122.267 73.3525 121.104 73.3525C114.624 73.3525 110.179 76.9038 110.179 81.8569ZM128.837 36.8131C128.837 27.6545 132.414 21.2996 138.894 21.2996C144.889 21.2996 148.852 27.0003 148.852 36.8131C148.852 46.0631 145.566 52.1377 138.993 52.1377C132.512 52.1377 128.837 45.9696 128.837 36.8131Z" />
<path fill-rule="evenodd" clip-rule="evenodd" d="M212.223 59.3325C209.708 65.7809 202.454 74.7526 190.172 74.7526C173.826 74.7526 165.22 65.5919 165.22 45.3163C165.22 34.1973 170.636 17.7491 189.88 17.7491C200.811 17.7491 212.027 24.0106 212.126 45.5967H179.242C179.242 56.0615 181.273 68.8628 192.59 68.8628C200.326 68.8628 207.29 62.4165 209.708 57.8372L212.223 59.3325ZM198.879 42.0476C198.879 27.4707 195.688 21.1179 189.304 21.1179C181.663 21.1179 179.346 30.3657 179.346 42.0476H198.879Z" />
<path d="M267.745 73.9134H241.443V71.3922C243.085 71.3922 244.729 71.3922 246.182 69.9883C247.536 68.5864 247.826 66.2501 247.727 50.0844L247.631 36.629C247.631 27.4704 245.795 23.9191 238.926 23.9191C235.835 23.9191 232.929 25.5078 229.928 28.5005V50.0844C229.928 66.6239 230.418 68.5864 231.768 69.9883C233.219 71.3922 234.67 71.3922 236.314 71.3922V73.9134H210.008V71.3922C211.652 71.3922 213.296 71.3922 214.749 69.9883C216.097 68.5864 216.295 66.2501 216.295 50.0844V41.6734C216.295 25.1361 216.097 23.8277 214.65 22.5193C213.155 21.1575 211.17 21.191 210.174 21.2078C210.076 21.2095 209.988 21.211 209.911 21.211V18.5942H229.928V24.1081C233.804 20.3699 238.926 17.5662 244.538 17.5662C258.272 17.5662 261.363 26.2576 261.363 36.1638V50.0844C261.363 66.6239 261.849 68.5864 263.203 69.9883C264.654 71.3922 266.1 71.3922 267.745 71.3922V73.9134Z" />
<path d="M289.286 74.9414C286.383 74.9414 283.797 74.6839 281.21 74.4263C278.623 74.1688 276.036 73.9113 273.133 73.9113H270.427V56.5328H273.133C274.101 64.7548 279.614 71.8574 287.352 71.8574C291.317 71.8574 297.798 69.9861 297.798 62.7922C297.798 57.493 291.843 54.8436 285.718 52.1183L285.717 52.1178C285.037 51.8153 284.355 51.5119 283.679 51.2038C283.222 50.9923 282.761 50.7828 282.3 50.5729C275.635 47.5378 268.783 44.4179 268.783 34.1036C268.783 21.3958 280.68 17.5662 287.835 17.5662C291.449 17.5662 295.624 18.0011 298.774 18.3293C300.683 18.5281 302.215 18.6877 303.019 18.6877H304.663V34.6664H301.957C301.181 24.106 293.153 20.9306 288.418 20.9306C280.583 20.9306 277.972 24.0146 277.972 28.6853C277.972 33.2603 283.126 35.2015 289.126 37.461C297.479 40.6069 307.47 44.3698 307.47 56.7176C307.468 68.493 298.857 74.9414 289.286 74.9414Z" />
<path d="M388.147 4.39784C382.058 4.39784 377.705 6.64076 377.51 16.4536C377.411 20.8438 377.316 36.5443 377.316 36.5443V74.107H372.966L331.957 19.442C331.957 21.2284 331.974 23.3049 331.994 25.7321C332.021 29.1461 332.054 33.2539 332.054 38.2244C332.054 46.4506 332.054 55.2333 332.153 59.6235C332.344 69.4342 336.697 71.6772 342.79 71.6772V74.1091H316.776V71.6772C322.87 71.6772 327.218 69.4342 327.414 59.6235C327.512 55.2333 327.607 38.2244 327.607 38.2244L327.701 13.6499C327.185 12.9292 326.712 12.2545 326.271 11.6244L326.269 11.6218C322.992 6.94489 321.439 4.72748 316.581 4.39996V1.97012H326.35C328.864 1.97012 338.341 1.87667 338.341 1.87667L372.867 47.2896V36.5443C372.867 28.3224 372.867 20.8438 372.77 16.4536C372.579 6.64076 368.226 4.39784 362.133 4.39784V1.968H388.147V4.39784Z" />
<path fill-rule="evenodd" clip-rule="evenodd" d="M435.069 74.8566C447.351 74.8566 454.601 65.8849 457.118 59.4344L454.599 57.9391C452.183 62.5184 445.219 68.9647 437.483 68.9647C426.166 68.9647 424.135 56.1634 424.135 45.6964H457.019C456.92 24.1125 445.704 17.8489 434.773 17.8489C428.101 17.8489 423.073 19.8136 419.398 22.8976C416.688 19.8136 412.533 17.9466 406.246 17.9466C393.672 17.9466 382.067 23.9277 382.067 30.0936C382.067 33.5494 384.389 35.325 388.932 35.325C393.285 35.325 395.314 34.673 394.931 32.6191C393.672 25.423 396.96 21.311 403.247 21.311C408.084 21.311 409.924 23.9298 409.924 30.4675C409.924 30.5416 409.931 30.7915 409.943 31.1933L409.943 31.1964L409.943 31.1985L409.943 31.2066V31.208C409.992 32.8653 410.115 37.0557 410.115 42.1494C396.189 43.3664 381.006 47.385 381.006 60.6514C381.006 71.2076 389.906 75.2283 397.156 75.2283C403.83 75.2283 410.601 73.2679 415.531 66.6325C419.693 72.242 426.268 74.8566 435.069 74.8566ZM394.25 60.837C394.25 47.3795 403.144 46.069 410.106 45.6038C410.106 53.1737 411.362 59.1527 413.782 63.7299C410.786 67.7463 405.853 70.1783 402.368 70.1783C397.247 70.1783 394.25 67.466 394.25 60.837ZM443.777 42.1523C443.777 27.5754 440.58 21.2225 434.201 21.2225C426.558 21.2225 424.241 30.4704 424.241 42.1523H443.777Z" />
<path d="M491.267 29.1638C490.493 30.9394 488.752 30.8439 487.299 29.7245C487.116 29.5896 486.917 29.4396 486.704 29.2796C485.002 28.0008 482.445 26.0798 480.724 26.0798C478.115 26.0798 474.824 28.5117 474.824 36.3577V50.187C474.824 66.7264 475.209 68.689 476.758 70.0908C478.405 71.4948 480.24 71.4948 482.078 71.4948V74.016H454.903V71.4948C456.546 71.4948 458.188 71.4948 459.638 70.0908C460.995 68.689 461.184 66.3526 461.184 50.187V41.7781C461.184 25.2387 460.995 23.9324 459.542 22.6219C458.044 21.2603 456.068 21.2936 455.067 21.3104C454.969 21.3121 454.88 21.3136 454.802 21.3136V18.6968H474.824V26.2646C477.438 20.379 481.496 17.5753 487.108 17.5753C490.588 17.5753 495.134 19.8204 493.584 23.6478C492.57 26.1042 492.347 26.6246 492.012 27.4086L492.011 27.4119L492.009 27.4153C491.835 27.823 491.63 28.3033 491.267 29.1638Z" />
<path d="M582.185 74.0119H555.88V71.4929C557.522 71.4929 559.167 71.4929 560.615 70.0868C561.969 68.685 562.264 66.3486 562.165 50.1829L562.068 36.7296C562.068 27.571 560.233 24.0218 553.363 24.0218C550.268 24.0218 547.366 25.6085 544.366 28.599V50.1829C544.366 66.7224 544.856 68.685 546.208 70.0868C547.657 71.4929 549.108 71.4929 550.752 71.4929V74.0119H524.443V71.4929C526.094 71.4929 527.738 71.4929 529.185 70.0868C530.537 68.685 530.734 66.3486 530.734 50.1829V41.7741C530.734 25.2346 530.537 23.9284 529.09 22.6179C527.591 21.2561 525.612 21.2895 524.616 21.3064C524.518 21.308 524.43 21.3095 524.353 21.3095V18.6928H544.368V24.2088C548.239 20.4684 553.366 17.6669 558.975 17.6669C572.708 17.6669 575.803 26.3603 575.803 36.2624V50.1851C575.803 66.7245 576.289 68.6871 577.643 70.0889C579.087 71.495 580.54 71.495 582.185 71.495V74.0119Z" />
<path fill-rule="evenodd" clip-rule="evenodd" d="M623.109 23.5526C626.299 26.3542 628.431 30.4683 628.431 36.2604C628.431 46.9143 620.113 54.858 605.024 54.858H602.896C594.483 54.858 590.03 55.8818 590.03 58.6897C590.03 60.6584 592.919 60.9017 601.89 61.6572C603.555 61.7975 605.431 61.9555 607.536 62.1454C623.397 63.6407 632.399 66.164 632.399 79.1522C632.399 90.4581 622.625 97 605.314 97C586.165 97 576.009 92.1424 576.009 83.3577C576.009 78.4045 580.458 74.8532 586.939 74.8532C588.097 74.8532 591.582 75.227 592.742 76.7223C589.94 78.9653 588.583 81.3951 588.583 84.2901C588.583 90.3647 592.648 94.105 605.118 94.105C615.083 94.105 621.559 90.0843 621.559 83.0752C621.559 78.3111 617.791 76.3506 606.574 75.1336C587.809 73.1689 579.781 70.1826 579.781 62.7975C579.781 55.6949 587.033 52.3347 593.804 52.3347C585.198 50.9329 579.878 45.1366 579.878 36.2604C579.878 25.0479 589.166 17.9453 604.833 17.9453C606.475 17.9453 608.218 18.0367 609.959 18.2257C609.988 18.2352 610.015 18.2446 610.042 18.2539C610.066 18.2624 610.09 18.2708 610.113 18.279L610.118 18.2806L610.119 18.2809C610.327 18.3543 610.498 18.4147 610.733 18.4147C610.879 18.4147 611 18.4376 611.12 18.4605C611.24 18.4833 611.36 18.5061 611.504 18.5061C615.277 19.0872 620.481 19.0821 629.55 19.0734C630.723 19.0722 631.961 19.071 633.269 19.071V23.5526H623.109ZM604.73 21.3963C598.247 21.3963 594.671 27.7513 594.671 36.912C594.671 46.0685 598.346 52.2365 604.824 52.2365C611.399 52.2365 614.688 46.1641 614.688 36.912C614.69 27.0992 610.724 21.3963 604.73 21.3963Z" />
<path d="M645.314 74.5265C647.901 74.7841 650.488 75.0417 653.391 75.0417C662.965 75.0417 671.575 68.5933 671.575 56.8136C671.575 44.4683 661.58 40.7005 653.226 37.5514C647.229 35.2907 642.077 33.3489 642.077 28.7813C642.077 24.1107 644.689 21.0288 652.523 21.0288C657.256 21.0288 665.284 24.202 666.06 34.7646H668.768V18.7858H667.124C666.32 18.7858 664.788 18.6266 662.88 18.4282C659.73 18.1006 655.554 17.6665 651.938 17.6665C644.783 17.6665 632.886 21.4982 632.886 34.2017C632.886 44.5149 639.736 47.6343 646.398 50.6683C646.861 50.8791 647.323 51.0895 647.782 51.3019C648.456 51.6092 649.136 51.9118 649.813 52.2134L649.815 52.2142L649.821 52.2168L649.824 52.2182C655.95 54.9446 661.903 57.5941 661.903 62.8925C661.903 70.0864 655.42 71.9576 651.457 71.9576C643.719 71.9576 638.204 64.855 637.239 56.6331H634.531V74.0115H637.239C640.14 74.0115 642.727 74.269 645.314 74.5265Z" />
<path d="M696.155 74.0088V71.4898C694.511 71.4898 693.064 71.4898 691.611 70.0837C690.259 68.6819 689.774 66.7193 689.774 50.1799V1.96329H669.754V4.58004C669.832 4.58004 669.921 4.57855 670.019 4.57689C671.018 4.56005 672.996 4.5267 674.489 5.88629C675.94 7.19467 676.131 8.50304 676.131 25.0446V50.1799C676.131 66.3455 675.94 68.6819 674.588 70.0837C673.137 71.4898 671.493 71.4898 669.849 71.4898V74.0088H696.155Z" />
<path d="M703.522 7.75466C703.522 12.0536 707.101 15.7005 711.643 15.7005C716.193 15.7005 719.767 12.0536 719.767 7.75466C719.767 3.45572 716.191 0 711.643 0C707.101 0 703.522 3.45572 703.522 7.75466Z" />
<path d="M725.571 74.0102V71.4848C723.925 71.4848 722.478 71.4848 721.026 70.0829C719.674 68.6832 719.19 66.7207 719.19 50.1791V18.6889H699.168V21.3056C699.246 21.3056 699.335 21.3041 699.434 21.3025C700.434 21.2856 702.41 21.2524 703.905 22.6119C705.359 23.9245 705.55 25.2308 705.55 41.7702V50.1791C705.55 66.3447 705.359 68.6832 704.004 70.0829C702.554 71.4848 700.909 71.4848 699.263 71.4848V74.0102H725.571Z" />
<path d="M777.635 20.7321L778 20.6543V18.6939H760.304V20.6564C763.395 21.2193 766.202 22.156 766.202 24.7706C766.202 29.5347 756.143 56.2608 756.143 56.2608L747.825 33.5554C745.796 28.0394 745.215 26.079 745.215 24.5837C745.215 22.7146 747.629 21.2193 751.403 20.6564V18.6939H722.778V20.6564C726.354 21.4975 728.487 22.1538 730.417 27.2939L733.318 34.9551L748.02 75.228H753.045L770.748 26.3572C772.434 21.8297 773.941 21.5117 777.635 20.7321Z" />
</svg>
