<svg width="105" height="18" viewBox="0 0 105 18" fill="currentColor" xmlns="http://www.w3.org/2000/svg">
<path d="M89.4109 9.5096L89.4187 0.45H86.61L86.6022 9.5096C86.6022 10.9004 86.0479 12.2342 85.0613 13.2176C84.0747 14.2011 82.7365 14.7536 81.3412 14.7536C79.9459 14.7536 78.6078 14.2011 77.6211 13.2176C76.6345 12.2342 76.0802 10.9004 76.0802 9.5096L76.0809 0.45H73.2728L73.2721 9.5096C73.2721 14.382 77.3455 17.5983 81.3416 17.6C85.2645 17.6007 89.4187 14.4585 89.4109 9.5096Z"/>
<path d="M22.6708 0C20.9256 0 19.2197 0.5158 17.7687 1.4822C16.3177 2.4486 15.1868 3.8222 14.519 5.4293C13.8511 7.0363 13.6764 8.8047 14.0169 10.5108C14.3573 12.2168 15.1977 13.7839 16.4316 15.0139C17.6656 16.2439 19.2378 17.0815 20.9494 17.4209C22.661 17.7602 24.4351 17.5861 26.0473 16.9204C27.6596 16.2547 29.0377 15.1275 30.0072 13.6812C30.9767 12.2348 31.4942 10.5344 31.4942 8.7949C31.4916 6.4632 30.5612 4.2276 28.907 2.5788C27.2529 0.93 25.0101 0.0026 22.6708 0ZM28.6853 8.7949C28.6853 9.9807 28.3325 11.1398 27.6717 12.1256C27.0108 13.1115 26.0714 13.8799 24.9724 14.3337C23.8734 14.7875 22.6641 14.9062 21.4974 14.6749C20.3307 14.4435 19.259 13.8726 18.4178 13.0341C17.5767 12.1957 17.0039 11.1275 16.7718 9.9645C16.5397 8.8016 16.6588 7.5962 17.1141 6.5007C17.5693 5.4053 18.3402 4.4689 19.3293 3.8102C20.3183 3.1514 21.4812 2.7998 22.6708 2.7998C24.2653 2.8016 25.7941 3.4338 26.9216 4.5577C28.0491 5.6815 28.6834 7.2055 28.6853 8.7949Z"/>
<path d="M48.4974 8.3338C48.495 6.2436 47.661 4.2397 46.1782 2.7617C44.6954 1.2837 42.685 0.4523 40.5881 0.45V3.2496C41.9404 3.251 43.237 3.7871 44.1933 4.7403C45.1496 5.6935 45.6875 6.9858 45.689 8.3338H48.4974Z"/>
<path d="M48.5162 17.2713V14.4715C47.1639 14.47 45.8674 13.9339 44.9112 12.9807C43.955 12.0276 43.4171 10.7353 43.4156 9.3874H40.6062C40.6085 11.4777 41.4427 13.4817 42.9256 14.9597C44.4085 16.4378 46.4191 17.2691 48.5162 17.2713Z"/>
<path d="M53.1952 9.3929H56.0039V17.2477H53.1952V9.3929Z"/>
<path d="M66.0531 9.3929H68.8617V17.2477H66.0531V9.3929Z"/>
<path d="M34.9434 0.45H37.7521V17.2477H34.9434V0.45Z"/>
<path d="M0.849609 17.2477H3.74995V3.2704L12.394 3.2496V0.45H0.849609V17.2477Z"/>
<path d="M6.43359 7.46237H9.71138V10.262H6.43359V7.46237Z"/>
<path d="M98.8839 7.46237H102.162V10.262H98.8839V7.46237Z"/>
<path d="M61.0107 10.749L69.7947 1.99337L67.8088 0.0136719L61.0107 6.78967L54.2128 0.0136719L52.2267 1.99337L61.0107 10.749Z"/>
<path d="M104.847 17.249H93.3945V0.451172H104.847V3.25077L96.2032 3.27157V14.4286L104.847 14.4494V17.249Z"/>
</svg>
