<svg viewBox="0 0 60 80" xmlns="http://www.w3.org/2000/svg" fill="var(--icon-gaselle-color)">
  <path d="M52.6107 33.6997C52.5426 31.8353 51.7997 30.1403 50.2974 29.0047C44.6968 25.3119 45.3984 20.8839 45.3984 20.8839C45.3984 21.9114 50.3056 24.9962 53.4155 23.1148C47.2949 16.5533 50.9763 10.2905 32.7362 -0.101562C32.7362 -0.101562 43.5804 8.1549 44.2944 13.3033L39.9217 10.5554C39.1437 14.4664 42.8231 15.1846 42.8231 15.1846C42.8231 15.1846 41.1185 16.2969 40.4376 19.2822C39.7566 22.2674 40.875 28.1848 39.8783 30.8586C38.7248 33.9518 32.858 39.5155 25.0349 42.7401C17.2119 45.9647 17.9506 50.9033 17.9506 50.9033L19.9482 49.9372V53.2593C18.32 55.611 14.395 57.8123 14.395 57.8123L-0.0996094 80.0011H0.748526L16.3988 61.3505C32.792 58.4754 32.9405 49.7211 32.9405 49.7211C38.0273 45.5071 40.9349 46.5622 46.8326 43.1977C48.8075 42.0727 50.3222 40.4689 51.3044 38.7125C51.4159 38.6341 51.5417 38.5324 51.6862 38.4032C54.4411 35.9286 57.7325 35.9624 57.7325 35.9624C57.5942 41.6871 51.1497 46.2232 51.1497 46.2232V47.5706C51.1497 47.5706 59.9983 43.1977 59.9983 33.7018H52.6086L52.6107 33.6997Z" />
</svg>
