<svg width="168" height="33" viewBox="0 0 168 33" fill="currentColor" xmlns="http://www.w3.org/2000/svg">
<path d="M65.2567 22.5515C63.7272 22.5515 63.1628 21.8778 63.1628 20.8036C63.1628 19.5654 63.8547 18.9282 65.6573 18.9282H68.0425V19.6383C68.0425 21.5319 66.8772 22.5515 65.2567 22.5515ZM61.1053 21.0039C61.1053 22.4787 61.9611 24.0628 64.6376 24.0628C66.1853 24.0628 67.2596 23.4619 68.0061 22.5151L68.261 23.8261H69.9361V16.7614C69.9361 13.7389 68.1336 13.2109 65.985 13.2109C64.3645 13.2109 62.2342 13.6843 61.7244 16.1241H63.7819C64.0368 15.2137 64.6558 14.6857 65.9668 14.6857C67.0411 14.6857 68.0607 15.0681 68.0607 16.7796V17.5262H65.8029C63.0536 17.5262 61.1053 18.4365 61.1053 21.0039ZM55.6429 23.8261H57.573V17.3441C57.573 15.8328 58.5016 15.1591 59.6851 15.1591C60.0857 15.1591 60.5044 15.1773 60.9232 15.2502V13.3747C60.5591 13.2473 60.2313 13.2291 59.9036 13.2291C58.8293 13.2291 57.9917 13.8664 57.573 14.7585L57.3363 13.5022H55.6429V23.8261ZM124.104 23.8261H126.034V17.3441C126.034 15.8328 126.963 15.1591 128.146 15.1591C128.547 15.1591 128.966 15.1773 129.385 15.2502V13.3747C129.02 13.2473 128.693 13.2291 128.365 13.2291C127.291 13.2291 126.453 13.8664 126.034 14.7585L125.798 13.5022H124.104V23.8261ZM87.8163 15.1591V13.4658H85.7042V10.5161L83.7195 10.8256V13.4658H82.2265V15.1591H83.7195V21.7322C83.7195 23.207 84.2658 24.0992 86.4325 24.0992C86.9059 24.0992 87.616 24.0082 88.053 23.8807V22.4059C87.5978 22.5333 87.179 22.5515 86.8695 22.5515C85.9591 22.5515 85.7042 22.1145 85.7042 21.1677V15.1591H87.8163ZM146.063 15.1591V13.4658H143.933V10.5161L141.948 10.8256V13.4658H140.455V15.1591H141.948V21.7322C141.948 23.207 142.494 24.0992 144.661 24.0992C145.134 24.0992 145.845 24.0082 146.282 23.8807V22.4059C145.826 22.5333 145.408 22.5515 145.098 22.5515C144.188 22.5515 143.933 22.1145 143.933 21.1677V15.1591H146.063ZM117.295 22.4787C115.437 22.4787 114.236 21.1859 114.236 18.6186C114.236 16.1606 115.474 14.7768 117.313 14.7768C119.17 14.7768 120.262 16.1424 120.262 18.7279C120.262 21.2406 119.134 22.4787 117.295 22.4787ZM151.817 22.4787C149.96 22.4787 148.758 21.1859 148.758 18.6186C148.758 16.1606 149.996 14.7768 151.835 14.7768C153.692 14.7768 154.785 16.1424 154.785 18.7279C154.803 21.2406 153.656 22.4787 151.817 22.4787ZM130.732 23.8261H132.626V17.8539C132.626 16.1424 133.372 14.9406 135.156 14.9406C136.832 14.9406 137.341 15.6507 137.341 17.3987V23.8079H139.271V16.8525C139.271 14.4672 138.27 13.2291 136.012 13.2291C134.465 13.2291 133.317 13.7935 132.626 14.7768L132.389 13.4658H130.75V23.8261H130.732ZM72.4306 23.8261H74.306V17.8539C74.306 16.1424 75.0526 14.9406 76.8369 14.9406C78.5121 14.9406 79.0219 15.6507 79.0219 17.3987V23.8079H80.9519V16.8525C80.9519 14.4672 79.9505 13.2291 77.6927 13.2291C76.145 13.2291 74.9979 13.7935 74.306 14.7768L74.0693 13.4658H72.4306V23.8261ZM158.663 23.8261H160.538V17.8539C160.538 16.1424 161.285 14.9406 163.069 14.9406C164.744 14.9406 165.254 15.6507 165.254 17.3987V23.8079H167.184V16.8525C167.184 14.4672 166.183 13.2291 163.925 13.2291C162.377 13.2291 161.23 13.7935 160.538 14.7768L160.302 13.4658H158.663V23.8261ZM101.017 9.91517V8.24007H90.0013V9.91517H94.4986V23.8079H96.5743V9.91517H101.017ZM102.018 23.8261H103.893V17.8539C103.893 16.1424 104.622 14.9406 106.424 14.9406C108.1 14.9406 108.609 15.6507 108.609 17.3987V23.8079H110.539V16.8525C110.539 14.4672 109.538 13.2291 107.28 13.2291C105.732 13.2291 104.585 13.7935 103.893 14.7768V8.24007H102.018V23.8261ZM47.9046 17.6536H51.5826V21.1131C50.4537 22.0963 48.7421 22.4787 47.3583 22.4787C43.8988 22.4787 41.9324 20.2391 41.9324 16.3062C41.9324 12.1366 44.0445 9.82417 47.3219 9.82417C49.2702 9.82417 50.7268 10.5161 52.1106 11.8271L53.3305 10.4433C52.0924 9.07767 49.9621 8.07617 47.5404 8.07617C42.6607 8.07617 39.7656 11.4811 39.7656 16.2516C39.7656 20.931 42.1691 24.172 47.3947 24.172C50.2716 24.172 52.5112 22.9157 53.6219 21.714V16.0695H47.9228V17.6536H47.9046ZM117.44 13.2109C114.017 13.2109 112.215 15.5779 112.215 18.6915C112.215 21.9143 113.999 24.0446 117.203 24.0446C120.39 24.0446 122.375 21.9507 122.375 18.6368C122.375 15.232 120.536 13.2109 117.44 13.2109ZM151.962 13.2109C148.521 13.2109 146.737 15.5779 146.737 18.6915C146.737 21.9143 148.521 24.0446 151.726 24.0446C154.912 24.0446 156.897 21.9507 156.897 18.6368C156.897 15.232 155.058 13.2109 151.962 13.2109Z" />
<path fill-rule="evenodd" clip-rule="evenodd" d="M16.2949 9.55522C16.3818 9.58059 16.4594 9.61044 16.513 9.63108L16.5197 9.63364C16.5588 9.64866 16.5867 9.65923 16.6101 9.66733C16.6354 9.67456 16.6606 9.68255 16.6855 9.69134L16.3058 10.8817C16.2885 10.8767 16.2715 10.8716 16.255 10.8664C16.2199 10.8592 16.1353 10.8511 16.0026 10.8713C15.8553 10.8937 15.709 10.9421 15.6033 10.9977L15.5949 11.0021L15.5949 11.0021C13.1286 12.2526 11.4592 14.0646 10.7366 16.3157C9.26316 20.9422 11.1193 24.7981 14.0411 27.1804C17.0108 29.6017 20.9136 30.3801 23.4151 29.0644L24.0139 30.1614C16.4216 34.4593 6.7667 31.926 2.27399 24.3966C2.18426 24.2599 2.11773 24.1268 2.06746 24.0263L2.06491 24.0212C0.435965 20.9066 1.48678 16.4604 4.08957 13.2659C6.73116 10.0237 11.0929 7.90192 16.2949 9.55522ZM14.1994 10.3438C11.9288 11.6972 10.3005 13.5836 9.54611 15.9346L9.5457 15.9358C7.88762 21.1414 10.0098 25.5062 13.2512 28.1492C14.8698 29.4688 16.8098 30.3898 18.7341 30.7645C12.8179 31.8354 6.60085 29.2198 3.3404 23.7444L3.33222 23.7306L3.32336 23.7173C3.27536 23.6454 3.23698 23.5702 3.18029 23.4568L3.18039 23.4568L3.17485 23.4462C1.85821 20.9349 2.63758 17.0269 5.05864 14.0554C7.13845 11.5027 10.3412 9.7639 14.1994 10.3438Z" />
<path fill-rule="evenodd" clip-rule="evenodd" d="M24.3849 29.9627C31.9143 25.47 34.4476 15.815 30.1497 8.22266L29.0519 8.82008C30.3599 11.3224 29.5807 15.2262 27.1616 18.1957C24.7815 21.1174 20.9303 22.9735 16.3039 21.5001C14.0528 20.7775 12.2409 19.108 10.9903 16.6418L10.9904 16.6418L10.986 16.6334C10.9304 16.5277 10.882 16.3813 10.8596 16.2341C10.8394 16.1014 10.8475 16.0168 10.8546 15.9817C10.8599 15.9651 10.865 15.9482 10.87 15.9308L9.67962 15.5512C9.67083 15.5761 9.66285 15.6012 9.65562 15.6265C9.64751 15.65 9.63695 15.6779 9.62194 15.7169L9.61934 15.7237C9.59872 15.7773 9.56887 15.8548 9.54352 15.9416C7.8902 21.1437 10.0119 25.5055 13.2541 28.1471C16.4486 30.7499 20.8948 31.8007 24.0094 30.1718L24.0132 30.1699C24.1142 30.1194 24.2477 30.0527 24.3849 29.9627ZM10.3321 18.0372C9.7522 21.8954 11.491 25.0982 14.0437 27.178C17.0152 29.5991 20.9231 30.3785 23.4345 29.0618L23.4452 29.0562L23.4452 29.0563C23.5582 28.9998 23.6336 28.9613 23.7057 28.9132L23.719 28.9044L23.7326 28.8962C29.2143 25.632 31.8296 19.4045 30.7491 13.4821C30.376 15.4129 29.454 17.3608 28.1308 18.9852C25.4901 22.2268 21.1297 24.3491 15.9241 22.691L15.9229 22.6906C13.5719 21.9362 11.6854 20.3079 10.3321 18.0372Z" />
<path fill-rule="evenodd" clip-rule="evenodd" d="M29.9333 7.85384C25.4406 0.324597 15.7857 -2.20879 8.19336 2.08912L8.79146 3.18656C11.3028 1.86992 15.2108 2.6493 18.1823 5.07035C21.1062 7.45264 22.9624 11.3083 21.4891 15.9347C20.7665 18.186 19.097 19.998 16.6307 21.2485L16.6306 21.2485L16.6223 21.2529C16.5167 21.3084 16.3703 21.3568 16.223 21.3792C16.0902 21.3994 16.0056 21.3914 15.9706 21.3842C15.9541 21.379 15.9372 21.3738 15.92 21.3689L15.5399 22.5591C15.5647 22.5679 15.5898 22.5759 15.615 22.5831C15.6386 22.5912 15.6665 22.6018 15.7057 22.6169L15.7122 22.6194C15.7659 22.6401 15.8436 22.67 15.9306 22.6954C21.1325 24.3487 25.4944 22.227 28.1339 18.9845C30.7343 15.79 31.7806 11.3436 30.1421 8.22888L30.1406 8.22586C30.0901 8.12474 30.0235 7.99127 29.9333 7.85384ZM18.0261 21.9068C21.8843 22.4867 25.0867 20.7479 27.1644 18.1954C29.5831 15.2242 30.3579 11.317 29.0332 8.80579L29.0267 8.79355L29.0269 8.79349C28.9704 8.68043 28.932 8.60522 28.8839 8.53318L28.8751 8.51988L28.8669 8.50615C25.6075 3.03247 19.3932 0.41679 13.4786 1.48508C15.4069 1.85912 17.3506 2.78033 18.9718 4.10128C22.2157 6.74426 24.338 11.1092 22.6799 16.3148L22.6795 16.3161C21.9251 18.667 20.2968 20.5534 18.0261 21.9068Z" />
<path fill-rule="evenodd" clip-rule="evenodd" d="M21.3721 16.2658C21.3669 16.2824 21.3617 16.2993 21.3568 16.3167L22.5471 16.6963C22.5559 16.6714 22.5639 16.6463 22.5711 16.621C22.5792 16.5975 22.5898 16.5696 22.6048 16.5306L22.6074 16.5238C22.628 16.4702 22.6579 16.3927 22.6832 16.3059C24.3365 11.1039 22.2149 6.74197 18.9724 4.10251C15.7779 1.50206 11.3314 0.455735 8.21669 2.09427L8.21301 2.09611C8.1122 2.14649 7.97903 2.21303 7.84205 2.30287C0.329704 6.77794 -2.20172 16.4511 2.07643 24.042L3.17445 23.4449C1.85754 20.933 2.6331 17.0249 5.05159 14.0539C7.43126 11.1305 11.2869 9.2738 15.9229 10.7475C18.174 11.4701 19.9859 13.1395 21.2364 15.6057L21.2363 15.6057L21.2408 15.6141C21.2964 15.7198 21.3447 15.8662 21.3671 16.0134C21.3873 16.1461 21.3793 16.2307 21.3721 16.2658ZM21.8946 14.2103C20.5413 11.9396 18.6548 10.3113 16.3039 9.55694L16.3023 9.55643C11.0882 7.89868 6.7232 10.0203 4.08217 13.2648C2.76964 14.8771 1.85322 16.8081 1.47671 18.7258C0.430737 12.8154 3.04472 6.60882 8.49369 3.36968L8.50756 3.36143L8.521 3.35247C8.59309 3.30441 8.66839 3.26596 8.78156 3.20938L8.78163 3.20951L8.79368 3.20315C11.3049 1.87847 15.2121 2.65328 18.1833 5.07193C20.7357 7.14965 22.4746 10.3521 21.8946 14.2103Z" />
</svg>
