<svg width="78" height="26" viewBox="0 0 78 26" fill="currentColor" xmlns="http://www.w3.org/2000/svg">
<path d="M44.5649 22.4902H47.2288V25.1656H44.5649V22.4902Z" />
<path d="M59.0925 25.3754L52.0442 19.0163V25.1509H49.333V13.2492L49.6993 13.1855L56.6529 19.4967V13.4096H59.3633V25.3274L59.0925 25.3754ZM66.6425 15.6522C64.7927 15.6522 63.549 17.1735 63.549 19.2883C63.549 21.3875 64.7927 22.9244 66.6425 22.9244C68.4923 22.9244 69.7364 21.3875 69.7364 19.2883C69.7364 17.1735 68.4919 15.6522 66.6425 15.6522ZM66.5944 25.3435C62.9745 25.3435 60.6621 22.7326 60.6621 19.2883C60.6621 15.8283 63.0861 13.2174 66.7063 13.2174C70.3105 13.2174 72.6389 15.8283 72.6389 19.2883C72.6389 22.7326 70.1989 25.3435 66.5944 25.3435Z" />
<path d="M0 3.9688H2.71142V11.9658H0V3.9688Z" />
<path d="M0 0.14453H2.66431V2.82035H0V0.14453Z" />
<path d="M8.11944 12.1584C6.79595 12.1584 5.20126 11.6301 4.18066 10.9567L4.93007 8.49C5.87123 9.1791 7.09923 9.6273 8.19927 9.6273C9.1565 9.6273 9.5232 9.1791 9.5232 8.6025C9.5232 7.9936 9.2199 7.5769 7.43421 6.856C5.37658 6.023 4.65926 4.8217 4.65926 3.4121C4.65926 1.69817 6.04654 0.0322299 8.77336 0.0322299C10.0491 0.0322299 11.3569 0.48075 12.0422 0.94539L11.3573 3.3802C10.687 2.91558 9.603 2.4191 8.77336 2.4191C7.78485 2.4191 7.38608 2.88334 7.38608 3.3641C7.38608 4.1334 7.97621 4.3889 9.4433 5.0143C11.6281 5.9436 12.2817 7.0002 12.2817 8.5062C12.2817 10.3804 10.9265 12.1584 8.11944 12.1584ZM17.9771 4.9341L16.8129 7.7538H19.1257L17.9771 4.9341ZM20.8636 11.9662L19.987 9.8356H15.9516L15.0742 11.9662H12.3153L17.8175 0.12854H18.1846L23.6863 11.9658L20.8636 11.9662ZM34.5627 12.1902L27.5136 5.8315V11.9658H24.8028V0.0640702L25.1695 0L32.1227 6.3115V0.22406H34.8339V12.1419L34.5627 12.1902ZM59.0164 12.1902L51.9677 5.8312V11.9658H49.2565V0.0640702L49.6236 0L56.576 6.3115V0.22406H59.2872V12.1419L59.0164 12.1902ZM61.2693 11.9662V0.22406H68.5305V2.72335H63.9804V4.8213H68.5305V7.1924H63.9804V9.483H68.5305V11.9658L61.2693 11.9662ZM73.8378 12.1588C72.5139 12.1588 70.9192 11.6301 69.899 10.9567L70.6484 8.49C71.5891 9.1791 72.8172 9.6273 73.9172 9.6273C74.8744 9.6273 75.2411 9.1791 75.2411 8.6025C75.2411 7.9936 74.9378 7.5769 73.1521 6.856C71.0949 6.023 70.3776 4.8217 70.3776 3.4121C70.3776 1.69817 71.7649 0.0322299 74.4917 0.0322299C75.7674 0.0322299 77.0753 0.48075 77.7609 0.94539L77.0753 3.3802C76.4053 2.91558 75.3209 2.4191 74.4917 2.4191C73.5028 2.4191 73.104 2.88334 73.104 3.3641C73.104 4.1334 73.6949 4.3889 75.1612 5.0143C77.3465 5.9436 77.9996 7.0002 77.9996 8.5062C77.9996 10.3804 76.6444 12.1588 73.8378 12.1588ZM40.6428 2.52327C40.1803 2.52327 39.9412 2.53899 39.5267 2.58695V9.507C40.0206 9.5553 40.2284 9.5714 40.8182 9.5714C43.3696 9.5714 44.5022 8.13 44.5022 5.9353C44.5022 3.8048 43.1626 2.52327 40.6428 2.52327ZM40.3873 12.0063C39.0161 12.0063 38.2506 11.9422 36.8152 11.814V0.27988C38.1708 0.13601 39.1119 0.08845 40.2758 0.08845C45.124 0.08845 47.3883 2.61918 47.3883 5.9353C47.3883 9.3949 45.2355 12.0063 40.3873 12.0063Z" />
</svg>
