<svg width="64" height="23" viewBox="0 0 64 23" fill="currentColor" xmlns="http://www.w3.org/2000/svg">
<path d="M55.4154 0.34458H48.7845L40.9695 22.8H46.7123L47.8372 19.067H56.7771L58.0796 22.8H64.0001L55.4154 0.34458ZM49.3766 14.1854L52.0408 5.3985L55.0602 14.1854H49.3766ZM15.3931 14.7597L6.03886 0.34458H0V22.8H5.2692V8.672L14.4459 22.8H20.6623V0.34458H15.3931V14.7597ZM32.9177 0C27.8261 0 23.6226 4.0776 23.6226 9.0741C23.6226 14.0705 27.7669 18.1481 32.9177 18.1481C38.0685 18.1481 42.2128 14.0705 42.2128 9.0741C42.1536 4.0776 38.0093 0 32.9177 0ZM32.9177 13.1516C30.6087 13.1516 28.7142 11.3139 28.7142 9.0741C28.7142 6.8343 30.6087 4.9965 32.9177 4.9965C35.2267 4.9965 37.1212 6.8343 37.1212 9.0741C37.062 11.3139 35.2267 13.1516 32.9177 13.1516Z"/>
</svg>
