<svg viewBox="0 0 32 32" fill="none" xmlns="http://www.w3.org/2000/svg">
<path fill-rule="evenodd" clip-rule="evenodd" d="M15.8032 0.969751C12.5513 0.969751 9.93459 3.54201 9.93459 6.69128C9.93459 9.84055 12.5513 12.4128 15.8032 12.4128C19.0551 12.4128 21.6718 9.84055 21.6718 6.69128C21.6718 3.54201 19.0551 0.969751 15.8032 0.969751ZM8.96484 6.69128C8.96484 2.98515 12.0372 0 15.8032 0C19.5691 0 22.6415 2.98515 22.6415 6.69128C22.6415 10.3974 19.5691 13.3826 15.8032 13.3826C12.0372 13.3826 8.96484 10.3974 8.96484 6.69128Z" fill="#212121"/>
<path fill-rule="evenodd" clip-rule="evenodd" d="M16.2901 4.13672V9.24407H15.3203V4.13672H16.2901Z" fill="#212121"/>
<path fill-rule="evenodd" clip-rule="evenodd" d="M10.63 16.1461C9.22889 15.5277 7.67409 15.3174 6.15277 15.541C4.82776 15.7358 3.57842 16.2524 2.5174 17.0384C3.89635 18.0618 5.58643 18.6219 7.33203 18.6219C9.08164 18.6219 10.7755 18.0592 12.1562 17.0313C11.6852 16.6835 11.1738 16.3861 10.63 16.1461ZM12.9169 17.6703C13.3431 18.0766 13.7232 18.53 14.0487 19.0233C14.7894 20.1456 15.2198 21.4319 15.3034 22.7576H8.89816L10.0812 32.0025H21.5238L22.7068 22.7576H16.3038C16.3873 21.4319 16.8178 20.1456 17.5584 19.0233C17.884 18.53 18.2641 18.0766 18.6903 17.6703C20.2715 18.912 22.2412 19.5916 24.2751 19.5916C26.4496 19.5916 28.5507 18.8148 30.1822 17.4048L30.6072 17.0375L30.1818 16.6707C28.8896 15.5567 27.297 14.8317 25.5955 14.5816C23.894 14.3314 22.1545 14.5664 20.5856 15.2589C19.0166 15.9514 17.684 17.0725 16.7491 18.4891C16.3543 19.0873 16.0376 19.7272 15.8036 20.3941C15.5696 19.7272 15.2529 19.0873 14.8581 18.4891C13.9232 17.0725 12.5905 15.9514 11.0216 15.2589C9.45268 14.5664 7.71319 14.3314 6.01172 14.5816C4.31021 14.8317 2.71753 15.5567 1.42541 16.6707L1 17.0375L1.42499 17.4048C3.05645 18.8148 5.15755 19.5916 7.33203 19.5916C9.36593 19.5916 11.3356 18.912 12.9169 17.6703ZM19.451 17.0313C20.8317 18.0592 22.5255 18.6219 24.2751 18.6219C26.0207 18.6219 27.7108 18.0618 29.0898 17.0384C28.0287 16.2524 26.7794 15.7358 25.4544 15.541C23.9331 15.3174 22.3783 15.5277 20.9772 16.1461C20.4334 16.3861 19.9219 16.6835 19.451 17.0313ZM10.9347 31.0328L9.99991 23.7273H21.6051L20.6703 31.0328H10.9347Z" fill="#212121"/>
</svg>
