<svg viewBox="0 0 32 32" fill="none" xmlns="http://www.w3.org/2000/svg">
<path fill-rule="evenodd" clip-rule="evenodd" d="M16 1.03226C7.73354 1.03226 1.03226 7.73354 1.03226 16C1.03226 24.2665 7.73354 30.9677 16 30.9677C24.2665 30.9677 30.9677 24.2665 30.9677 16C30.9677 7.73354 24.2665 1.03226 16 1.03226ZM0 16C0 7.16344 7.16344 0 16 0C24.8366 0 32 7.16344 32 16C32 24.8366 24.8366 32 16 32C7.16344 32 0 24.8366 0 16Z" fill="#212121"/>
<path d="M9.8067 16.0001C10.9469 16.0001 11.8712 15.0758 11.8712 13.9356C11.8712 12.7954 10.9469 11.8711 9.8067 11.8711C8.6665 11.8711 7.74219 12.7954 7.74219 13.9356C7.74219 15.0758 8.6665 16.0001 9.8067 16.0001Z" fill="#212121"/>
<path d="M22.1934 16.0001C23.3336 16.0001 24.2579 15.0758 24.2579 13.9356C24.2579 12.7954 23.3336 11.8711 22.1934 11.8711C21.0532 11.8711 20.1289 12.7954 20.1289 13.9356C20.1289 15.0758 21.0532 16.0001 22.1934 16.0001Z" fill="#212121"/>
<path fill-rule="evenodd" clip-rule="evenodd" d="M10.8224 21.4883L11.0798 21.9356C11.5777 22.8004 12.2946 23.5187 13.1584 24.0182C14.0222 24.5176 15.0024 24.7806 16.0003 24.7806C16.9981 24.7806 17.9783 24.5176 18.8421 24.0182C19.706 23.5187 20.4229 22.8004 20.9207 21.9356L21.1782 21.4883L22.0728 22.0033L21.8153 22.4506C21.227 23.4726 20.3797 24.3215 19.3588 24.9118C18.338 25.5021 17.1795 25.8129 16.0003 25.8129C14.821 25.8129 13.6626 25.5021 12.6417 24.9118C11.6208 24.3215 10.7735 23.4726 10.1852 22.4506L9.92773 22.0033L10.8224 21.4883Z" fill="#212121"/>
</svg>
