<svg viewBox="0 0 32 32" fill="none" xmlns="http://www.w3.org/2000/svg">
<path fill-rule="evenodd" clip-rule="evenodd" d="M14.9071 1.03238C14.4287 0.95471 13.9381 1.01747 13.4947 1.21307C13.0513 1.40866 12.6741 1.72868 12.4089 2.13433C12.1437 2.53998 12.0019 3.01385 12.0007 3.49848L12.0007 3.49978V9.31482L6.99993 15.1491V13H0V31H6.99993V16.6857L13.0007 9.68474V3.50057C13.0015 3.20958 13.0867 2.92507 13.2459 2.6815C13.4053 2.43778 13.6319 2.24552 13.8983 2.12801C14.1647 2.0105 14.4594 1.97279 14.7468 2.01945C15.0305 2.06551 15.295 2.19181 15.509 2.38332C17.0172 3.89605 17.9058 5.91769 18.0006 8.05173V12.9998L27.5005 12.9999L27.5097 12.9997C27.8385 12.9936 28.1651 13.0539 28.4701 13.1769C28.775 13.2999 29.052 13.4832 29.2846 13.7157C29.5171 13.9482 29.7003 14.2252 29.8233 14.5302C29.9432 14.8273 30.0035 15.145 30.0009 15.4653L28.5052 27.4306C28.3939 28.1458 28.0308 28.7978 27.4812 29.2689C26.9298 29.7415 26.2267 30.0008 25.5005 29.9998H10.5007V30.9998H25.4998C26.4652 31.0011 27.399 30.6564 28.1319 30.0281C28.8649 29.3999 29.3486 28.5298 29.4949 27.5756L30.9999 15.5355L31.0004 15.509C31.0089 15.0458 30.924 14.5857 30.7507 14.1561C30.5774 13.7264 30.3192 13.3362 29.9917 13.0086C29.6641 12.681 29.2738 12.4228 28.8442 12.2495C28.4161 12.0768 27.9576 11.9919 27.4961 11.9998H19.0006V8.02999L19.0001 8.01922C18.8968 5.62698 17.9003 3.36045 16.2072 1.66724L16.1987 1.65874L16.1898 1.65066C15.831 1.32482 15.3855 1.11005 14.9071 1.03238ZM1 30V14H5.99993V30H1Z" fill="#212121"/>
</svg>
