<svg width="96" height="34" viewBox="0 0 96 34" fill="currentColor" xmlns="http://www.w3.org/2000/svg">
<path d="M40.3543 23.194C40.1546 22.1166 40.7911 20.4235 42.6694 19.8673C44.5063 19.2966 45.9821 20.4235 46.3572 21.418L40.3543 23.194ZM49.4137 22.6741C49.0898 20.7144 48.1369 19.1382 46.4577 18.1518C45.1644 17.4053 43.6064 17.2036 42.0328 17.6686C38.8238 18.6187 37.2341 22.0285 38.1054 25.1129C38.9599 28.1414 42.0571 30.1487 45.3252 29.1816C46.4108 28.8598 47.3693 28.2335 48.0755 27.3496C48.8007 26.4709 49.2895 25.3311 49.4584 23.9847L46.85 24.7567C46.6049 25.779 45.949 26.6093 44.7084 26.9775C43.2662 27.4099 41.4838 26.8983 40.8835 25.1997L49.4137 22.6741Z" />
<path d="M59.4054 23.194C59.2053 22.1166 59.8421 20.4235 61.7202 19.8673C63.5568 19.2966 65.0329 20.4235 65.4079 21.418L59.4054 23.194ZM68.4642 22.6741C68.1405 20.7144 67.188 19.1382 65.5083 18.1518C64.2149 17.4053 62.6575 17.2036 61.0841 17.6686C57.8745 18.6187 56.2848 22.0285 57.1562 25.1129C58.0107 28.1414 61.1076 30.1487 64.3764 29.1816C65.4616 28.8598 66.4205 28.2335 67.1266 27.3496C67.8517 26.4709 68.3408 25.3311 68.5097 23.9847L65.9007 24.7567C65.6554 25.779 65.0001 26.6093 63.7589 26.9775C62.3172 27.4099 60.5348 26.8983 59.9344 25.1997L68.4642 22.6741Z" />
<path d="M68.3926 29.2006H71.5846L74.0827 25.315L76.5546 29.2006H79.7826L75.6588 23.2478L79.361 17.9082H76.2237L74.0827 21.3833L71.932 17.9082H68.7543L72.4609 23.2478L68.3926 29.2006Z" />
<path d="M28.8804 23.4337C28.8804 21.4418 27.4199 19.9741 25.6148 19.9741C23.8542 19.9741 22.4227 21.3732 22.3541 23.2913H22.3706V23.8603C22.5556 25.6222 23.9368 26.8924 25.6148 26.8924C27.4199 26.8924 28.8804 25.4245 28.8804 23.4337ZM31.521 23.4545C31.521 26.3705 29.4569 29.4346 25.6148 29.4346C24.3286 29.4346 23.247 29.0862 22.3706 28.5214V33.1506H19.73V23.9735C19.7157 23.8007 19.707 23.6273 19.707 23.4545V23.4337C19.707 20.5423 21.7713 17.4707 25.6148 17.4707C29.4569 17.4707 31.521 20.5423 31.521 23.4545Z" />
<path d="M35.9669 13.8574H33.3262V29.0851H35.9669V13.8574Z" />
<path d="M15.8977 16.1594C16.7044 16.1594 17.358 15.4899 17.358 14.6636C17.358 13.8376 16.7044 13.168 15.8977 13.168C15.0911 13.168 14.4375 13.8376 14.4375 14.6636C14.4375 15.4899 15.0911 16.1594 15.8977 16.1594ZM14.6362 17.794H17.2766V29.0853H14.6362V17.794Z" />
<path d="M8.66793 23.3606H8.66466C8.73329 21.4185 10.1837 20.0008 11.9666 20.0008C12.1833 20.0008 12.394 20.0237 12.5998 20.064V17.4991C12.3934 17.4799 12.1838 17.4668 11.9666 17.4668C8.07421 17.4668 5.9834 20.5764 5.9834 23.5047V23.5263C5.9834 23.7014 5.99157 23.8764 6.00709 24.0524V29.1293H8.68059L8.66793 23.3606Z" />
<path d="M5.37341 17.3567H2.63714V13.8652H0V29.0748H2.63714V20.0573H5.37341V17.3567Z" />
<path d="M56.5138 17.3567H53.7776V13.8652H51.1406V29.0748H53.7776V20.0573H56.5138V17.3567Z" />
<path d="M92.2884 14.5255C91.3354 14.5254 90.3824 14.1531 89.6556 13.4089C88.2007 11.9195 88.2007 9.5051 89.6556 8.0148C90.3825 7.2706 91.3353 6.89844 92.2884 6.89844C93.2417 6.89844 94.1954 7.2707 94.9232 8.0156C95.574 8.6824 95.9312 9.535 95.9991 10.4072H92.4774V11.0169H95.9991C95.9314 11.8891 95.5744 12.7415 94.9232 13.408C94.1952 14.1531 93.2419 14.5255 92.2884 14.5255Z" />
<path d="M85.9262 21.332V17.7257H85.3307V21.332C84.4789 21.2622 83.6465 20.897 82.9956 20.2297C81.5406 18.7393 81.5406 16.3252 82.9952 14.8358C83.7222 14.0911 84.6752 13.7188 85.6283 13.7188C86.5815 13.7188 87.5348 14.0911 88.2625 14.8358C89.7163 16.3252 89.7163 18.7393 88.2621 20.2297C87.6104 20.8966 86.778 21.2622 85.9262 21.332Z" />
<path d="M85.5576 7.6279C83.5001 7.6283 81.8326 5.92103 81.832 3.81354C81.8323 1.70856 83.4993 0.00125 85.5572 0C86.4781 0.00084 87.3193 0.34497 87.9696 0.91221L85.4792 3.46229L85.9004 3.89358L88.3908 1.34378C88.9451 2.00933 89.2814 2.87079 89.281 3.81354C89.2807 5.92033 87.6137 7.6279 85.5576 7.6279Z" />
</svg>
