<svg width="129" height="17" viewBox="0 0 129 17" fill="none" xmlns="http://www.w3.org/2000/svg">
<path d="M26.2567 14.5515C24.7272 14.5515 24.1628 13.8778 24.1628 12.8036C24.1628 11.5654 24.8547 10.9282 26.6573 10.9282H29.0425V11.6383C29.0425 13.5319 27.8772 14.5515 26.2567 14.5515ZM22.1053 13.0039C22.1053 14.4787 22.9611 16.0628 25.6376 16.0628C27.1853 16.0628 28.2596 15.4619 29.0061 14.5151L29.261 15.8261H30.9361V8.76137C30.9361 5.73887 29.1336 5.21087 26.985 5.21087C25.3645 5.21087 23.2342 5.68427 22.7244 8.12407H24.7819C25.0368 7.21367 25.6558 6.68567 26.9668 6.68567C28.0411 6.68567 29.0607 7.06807 29.0607 8.77957V9.52617H26.8029C24.0536 9.52617 22.1053 10.4365 22.1053 13.0039ZM16.6429 15.8261H18.573V9.34407C18.573 7.83277 19.5016 7.15907 20.6851 7.15907C21.0857 7.15907 21.5044 7.17727 21.9232 7.25017V5.37467C21.5591 5.24727 21.2313 5.22907 20.9036 5.22907C19.8293 5.22907 18.9917 5.86637 18.573 6.75847L18.3363 5.50217H16.6429V15.8261ZM85.1044 15.8261H87.0344V9.34407C87.0344 7.83277 87.9634 7.15907 89.1464 7.15907C89.5474 7.15907 89.9664 7.17727 90.3854 7.25017V5.37467C90.0204 5.24727 89.6934 5.22907 89.3654 5.22907C88.2914 5.22907 87.4534 5.86637 87.0344 6.75847L86.7984 5.50217H85.1044V15.8261ZM48.8163 7.15907V5.46577H46.7042V2.51607L44.7195 2.82557V5.46577H43.2265V7.15907H44.7195V13.7322C44.7195 15.207 45.2658 16.0992 47.4325 16.0992C47.9059 16.0992 48.616 16.0082 49.053 15.8807V14.4059C48.5978 14.5333 48.179 14.5515 47.8695 14.5515C46.9591 14.5515 46.7042 14.1145 46.7042 13.1677V7.15907H48.8163ZM107.063 7.15907V5.46577H104.933V2.51607L102.948 2.82557V5.46577H101.455V7.15907H102.948V13.7322C102.948 15.207 103.494 16.0992 105.661 16.0992C106.134 16.0992 106.845 16.0082 107.282 15.8807V14.4059C106.826 14.5333 106.408 14.5515 106.098 14.5515C105.188 14.5515 104.933 14.1145 104.933 13.1677V7.15907H107.063ZM78.2954 14.4787C76.4374 14.4787 75.2364 13.1859 75.2364 10.6186C75.2364 8.16057 76.4744 6.77677 78.3134 6.77677C80.1704 6.77677 81.2624 8.14237 81.2624 10.7279C81.2624 13.2406 80.1344 14.4787 78.2954 14.4787ZM112.817 14.4787C110.96 14.4787 109.758 13.1859 109.758 10.6186C109.758 8.16057 110.996 6.77677 112.835 6.77677C114.692 6.77677 115.785 8.14237 115.785 10.7279C115.803 13.2406 114.656 14.4787 112.817 14.4787ZM91.7324 15.8261H93.6264V9.85387C93.6264 8.14237 94.3724 6.94057 96.1564 6.94057C97.8324 6.94057 98.3414 7.65067 98.3414 9.39867V15.8079H100.271V8.85247C100.271 6.46717 99.2704 5.22907 97.0124 5.22907C95.4654 5.22907 94.3174 5.79347 93.6264 6.77677L93.3894 5.46577H91.7504V15.8261H91.7324ZM33.4306 15.8261H35.306V9.85387C35.306 8.14237 36.0526 6.94057 37.8369 6.94057C39.5121 6.94057 40.0219 7.65067 40.0219 9.39867V15.8079H41.9519V8.85247C41.9519 6.46717 40.9505 5.22907 38.6927 5.22907C37.145 5.22907 35.9979 5.79347 35.306 6.77677L35.0693 5.46577H33.4306V15.8261ZM119.663 15.8261H121.538V9.85387C121.538 8.14237 122.285 6.94057 124.069 6.94057C125.744 6.94057 126.254 7.65067 126.254 9.39867V15.8079H128.184V8.85247C128.184 6.46717 127.183 5.22907 124.925 5.22907C123.377 5.22907 122.23 5.79347 121.538 6.77677L121.302 5.46577H119.663V15.8261ZM62.0174 1.91517V0.240072H51.0013V1.91517H55.4986V15.8079H57.5743V1.91517H62.0174ZM63.0184 15.8261H64.8934V9.85387C64.8934 8.14237 65.6224 6.94057 67.4244 6.94057C69.1004 6.94057 69.6094 7.65067 69.6094 9.39867V15.8079H71.5394V8.85247C71.5394 6.46717 70.5384 5.22907 68.2804 5.22907C66.7324 5.22907 65.5854 5.79347 64.8934 6.77677V0.240072H63.0184V15.8261ZM8.90462 9.65357H12.5826V13.1131C11.4537 14.0963 9.74213 14.4787 8.35833 14.4787C4.89883 14.4787 2.93243 12.2391 2.93243 8.30617C2.93243 4.13657 5.04453 1.82417 8.32193 1.82417C10.2702 1.82417 11.7268 2.51607 13.1106 3.82707L14.3305 2.44327C13.0924 1.07767 10.9621 0.0761719 8.54042 0.0761719C3.66072 0.0761719 0.765625 3.48107 0.765625 8.25157C0.765625 12.931 3.16913 16.172 8.39473 16.172C11.2716 16.172 13.5112 14.9157 14.6219 13.714V8.06947H8.92282V9.65357H8.90462ZM78.4404 5.21087C75.0174 5.21087 73.2154 7.57787 73.2154 10.6915C73.2154 13.9143 74.9994 16.0446 78.2034 16.0446C81.3904 16.0446 83.3754 13.9507 83.3754 10.6368C83.3754 7.23197 81.5364 5.21087 78.4404 5.21087ZM112.962 5.21087C109.521 5.21087 107.737 7.57787 107.737 10.6915C107.737 13.9143 109.521 16.0446 112.726 16.0446C115.912 16.0446 117.897 13.9507 117.897 10.6368C117.897 7.23197 116.058 5.21087 112.962 5.21087Z" fill="black"/>
</svg>
