<svg viewBox="0 0 67 32" fill="none" xmlns="http://www.w3.org/2000/svg">
<path fill-rule="evenodd" clip-rule="evenodd" d="M36.9223 12.1759H44.898C44.9624 10.7552 45.4756 9.55571 46.5681 8.72135C47.6817 7.87087 49.3036 7.47351 51.4029 7.47351C53.2025 7.47351 54.5742 7.72614 55.5126 8.30169C56.5109 8.91396 56.9484 9.84662 56.9484 10.9617C56.9484 12.4216 55.8087 13.2994 54.4053 13.9093C52.9763 14.5304 50.9813 15.0047 48.7326 15.5252L48.7285 15.5261C45.6362 16.2203 42.6024 17.0309 40.3417 18.4896C38.1287 19.9175 36.6691 21.9552 36.6691 25.1949V30.7338H64.4992V24.0227H44.9159L45.4319 23.0844C45.7405 22.5234 46.2511 22.0991 46.8533 21.7557C47.457 21.4117 48.1989 21.123 49.0311 20.8554C50.0226 20.5366 51.2102 20.2282 52.5163 19.8889C53.3744 19.666 54.2836 19.4299 55.2218 19.1688L55.2265 19.1675C58.0864 18.3951 60.5078 17.4775 62.2107 16.1053C63.8759 14.7635 64.8771 12.9697 64.8771 10.3319C64.8771 7.60838 63.8808 5.38345 61.7784 3.81749C59.6476 2.23042 56.3075 1.26624 51.5288 1.26624C46.5598 1.26624 42.953 2.26248 40.5795 4.09434C38.2453 5.89579 37.0151 8.57501 36.9223 12.1759ZM35.4029 30.2993V25.1949C35.4029 21.465 37.1343 19.0522 39.6552 17.4256C42.1279 15.8302 45.3699 14.9824 48.449 14.2911C50.7339 13.7622 52.601 13.3128 53.9006 12.748C55.2264 12.1718 55.6821 11.601 55.6821 10.9617C55.6821 10.2294 55.4268 9.73449 54.8506 9.38108C54.2145 8.99095 53.1301 8.73975 51.4029 8.73975C49.4296 8.73975 48.1334 9.11914 47.3367 9.72767C46.5716 10.312 46.1777 11.1772 46.158 12.3941V13.4422H35.6548V12.2072C35.7421 8.28059 37.0934 5.18529 39.8058 3.09193C42.4916 1.01909 46.4212 0 51.5288 0C56.4489 0 60.0995 0.988172 62.5347 2.80197C64.9983 4.63688 66.1433 7.26133 66.1433 10.3319C66.1433 13.3622 64.9612 15.5151 63.0052 17.0913C61.0872 18.6368 58.4501 19.6084 55.5588 20.3894C54.5643 20.6661 53.6356 20.907 52.7749 21.1303C51.5058 21.4595 50.3846 21.7503 49.4187 22.0609C48.714 22.2875 48.1287 22.514 47.663 22.7564H65.7654V32H24.5237L18.4671 23.3932L12.3308 32H0L12.1841 15.5362L1.26735 0.629793H13.1301L18.4685 8.18261L23.7674 0.629793H35.7334L24.6721 15.3781L35.4029 30.2993ZM3.76418 1.89604L13.7565 15.5401L2.51237 30.7338H11.6784L18.4738 21.2026L25.181 30.7338H34.1556L23.1011 15.3623L33.2009 1.89604H24.4258L18.4724 10.3819L12.4745 1.89604H3.76418Z" fill="#232528"/>
</svg>
